<?xml version='1.0' encoding='utf-8'?>
<svg xmlns="http://www.w3.org/2000/svg" width="1720px" height="1228px" version="1.1" viewBox="-320 450 1720 1228"> <g fill="#fff" stroke-linejoin="miter"> <path d="m-320 449.23c-0.20492 0-0.40149 0.08139-0.54641 0.22632-0.14493 0.14492-0.22632 0.34149-0.22632 0.54642l1e-3 1228c0 0.4268 0.34597 0.7727 0.77274 0.7727l1720 1e-3c0.2049 0 0.4015-0.0814 0.5464-0.2263s0.2263-0.3415 0.2263-0.5464l-1e-3 -1228c0-0.42676-0.3459-0.77274-0.7727-0.77274l-1720-1e-3z"/> </g> <g fill="#00aec7" stroke-linejoin="miter"> <path d="m925.99 968.94-6e-4 90.613c-1e-4 14.394 11.668 26.061 26.061 26.061l90.564 1e-4c12.835 0 23.113 9.8789 23.112 21.914v37.026h2.9506v-37.026c4e-4 -13.801-11.739-24.864-26.063-24.864l-90.564-1e-4c-12.763 0-23.111-10.347-23.111-23.111l6.1e-4 -90.613z"/> <path d="m620.37 980.53 4e-4 -118.86c1e-4 -14.395-11.668-26.061-26.06-26.061l-90.565-1e-4c-12.836 0-23.113-9.8799-23.113-21.914l3e-4 -37.027h-2.9507l-3e-4 37.027c0 13.802 11.739 24.864 26.063 24.864l90.565 1e-4c12.762 0 23.11 10.348 23.11 23.111l-2.4e-4 118.86z"/> <path d="m53.594 1110.9 190.97 0.0012c14.394 3e-4 26.061-11.67 26.061-26.061v-68.504c0-12.835 9.8801-23.111 21.913-23.111l142.89-8.3e-4 1.3e-4 -2.9502-142.89 9.6e-4c-13.799 0-24.864 11.738-24.864 26.062v68.504c0 12.763-10.346 23.109-23.111 23.109l-190.97-0.0015z"/> <path d="m592.84 1070.3 224.25 4e-4c14.777 0 26.061-18.438 26.061-32.382l-1.4e-4 -43.733c1.4e-4 -12.837 9.8807-23.113 21.914-23.113l226.21 1.5e-4v-2.9502l-226.21-2e-4c-13.8 0-24.865 11.74-24.865 26.063l1.5e-4 43.733c-4e-4 13.207-10.73 29.43-23.11 29.43l-224.25-3e-4z"/> <path d="m1210.9 1402.3v-118.86c0-14.394-11.669-26.06-26.062-26.06l-90.565-3e-4c-12.835 0-23.113-9.8824-23.112-21.916l1e-4 -37.025h-2.9509l-2e-4 37.025c-4e-4 13.801 11.738 24.866 26.063 24.866l90.565 3e-4c12.763 0 23.112 10.345 23.112 23.109v118.86z"/> <path d="m1118.4 1180.8c-3e-4 24.892-20.18 45.076-45.076 45.076s-45.076-20.183-45.075-45.076c-5e-4 -24.896 20.18-45.075 45.076-45.075 24.895 0 45.076 20.18 45.076 45.075"/> <path d="m1118.3 1180.8c-5e-4 24.859-20.152 45.016-45.014 45.016-24.861 0-45.014-20.157-45.014-45.016-1e-4 -24.86 20.153-45.013 45.014-45.013 24.862 0 45.014 20.152 45.014 45.013h0.1235c-2e-4 -24.929-20.208-45.136-45.138-45.136-24.929 0-45.137 20.207-45.137 45.136-1e-4 24.926 20.208 45.138 45.137 45.138 24.93 0 45.138-20.213 45.138-45.138z"/> <path d="m135.31 1323.6 9e-5 -120.31c3e-5 -13.399 7.1768-23.174 14.929-23.174l234.46 0.0014c10.318-2e-4 17.881-11.686 17.88-24.923l3e-5 -10.008h-2.95l-3e-5 10.008c2.6e-4 12.662-7.1249 21.973-14.93 21.973l-234.46-0.0014c-10.368 0-17.879 12.298-17.879 26.124l-5e-5 120.31z"/> <path d="m663.82 1108.3 250.98 0.0012c12.38 0 23.11 16.225 23.11 29.432v81.123h2.9508v-81.123c0-13.946-11.283-32.384-26.061-32.384l-250.98-0.0014z"/> <path d="m762.66 1290 3.5e-4 -126.74c0-14.395-11.669-26.061-26.06-26.062l-102.9-1e-4c-12.836 0-23.112-9.8789-23.112-21.912l2.6e-4 -25.212h-2.9507l-2.4e-4 25.212c0 13.801 11.739 24.862 26.063 24.862l102.9 1e-4c12.762 7e-4 23.11 10.348 23.11 23.112l-3.5e-4 126.74z"/> <path d="m522.44 745.88c2.6e-4 24.894-20.18 45.078-45.075 45.078s-45.076-20.185-45.076-45.078c-3e-5 -24.894 20.18-45.076 45.076-45.076 24.895 1e-4 45.075 20.183 45.075 45.076"/> <path d="m522.38 745.88c2.6e-4 24.859-20.153 45.018-45.014 45.017-24.862 0-45.014-20.158-45.014-45.018-2e-5 -24.86 20.153-45.014 45.014-45.014 24.861 1e-4 45.014 20.153 45.014 45.014h0.1232c1e-4 -24.929-20.208-45.136-45.137-45.136-24.93 0-45.137 20.207-45.137 45.136 3.6e-4 24.929 20.208 45.141 45.137 45.141 24.929 1.5e-4 45.137-20.212 45.137-45.14z"/> <path d="m180.88 1355c1e-5 24.895-20.181 45.077-45.077 45.077-24.896 5e-4 -45.078-20.183-45.078-45.076-1e-5 -24.895 20.181-45.075 45.078-45.076 24.895 0 45.077 20.18 45.077 45.075"/> <path d="m180.82 1355c2e-5 24.859-20.154 45.016-45.015 45.016-24.862 5e-4 -45.016-20.157-45.016-45.016-1e-5 -24.862 20.154-45.014 45.016-45.014 24.861 0 45.015 20.152 45.015 45.014h0.12282c5e-5 -24.928-20.209-45.136-45.138-45.136-24.93 4e-4 -45.139 20.208-45.139 45.136-1e-5 24.928 20.209 45.139 45.139 45.139 24.929 0 45.138-20.211 45.138-45.139z"/> <path d="m806.25 1302.6c1e-4 24.894-20.18 45.078-45.075 45.078-24.896-9e-4 -45.076-20.185-45.077-45.079-1.2e-4 -24.895 20.18-45.075 45.076-45.074 24.895 2e-4 45.076 20.18 45.076 45.075"/> <path d="m806.19 1302.6c2.4e-4 24.86-20.153 45.018-45.014 45.018-24.862-1e-3 -45.014-20.158-45.014-45.019-1e-4 -24.859 20.152-45.014 45.014-45.013 24.861 2e-4 45.014 20.155 45.014 45.014h0.1234c-1e-4 -24.929-20.208-45.135-45.138-45.136-24.93-0.0012-45.137 20.206-45.137 45.134 0 24.927 20.208 45.138 45.137 45.14 24.929 0 45.137-20.21 45.137-45.139z"/> <path d="m67.025 1107.2c5e-6 24.894-20.18 45.077-45.075 45.077s-45.076-20.184-45.076-45.078c2.41e-4 -24.898 20.181-45.075 45.076-45.075s45.075 20.179 45.075 45.076"/> <path d="m66.964 1107.2c1e-5 24.86-20.153 45.014-45.014 45.014s-45.014-20.157-45.014-45.015c2.4e-4 -24.862 20.153-45.015 45.015-45.015s45.014 20.154 45.014 45.016h0.12306c2.46e-4 -24.931-20.208-45.139-45.137-45.139-24.93 0-45.137 20.207-45.137 45.138 4e-6 24.927 20.207 45.137 45.137 45.137 24.929 0 45.137-20.21 45.137-45.136z"/> <path d="m507.71 900.26-190.97-1e-4c-12.764 0-23.11-10.35-23.11-23.111l9e-5 -68.503c3.5e-4 -14.324-11.063-26.063-24.863-26.063l-142.89-0.0013v2.9502l142.89 0.0012c12.032 0 21.912 10.276 21.912 23.113l-1e-4 68.503c-3e-5 14.393 11.668 26.061 26.061 26.061l190.97 1.4e-4z"/> <path d="m454.13 1097.7-4.9e-4 250.98c0 12.381-16.225 23.112-29.433 23.112l-81.122-2e-4 -3e-5 2.95 81.122 2e-4c13.946 0 32.384-11.282 32.384-26.062l5.4e-4 -250.98z"/> <path d="m630.33 956.47 7.4e-4 -250.98c0-12.381 16.225-23.111 29.434-23.111h81.122v-2.9502h-81.122c-13.946 0-32.384 11.282-32.384 26.061l-7.3e-4 250.98z"/> <path d="m698.7 1507.5 5e-4 -224.25c0-14.778-18.437-26.06-32.384-26.06l-43.731 2e-4c-12.835 0-23.113-9.8828-23.113-21.913l5e-4 -191.45h-2.9506l-3.6e-4 191.45c-2.4e-4 13.798 11.739 24.863 26.063 24.863l43.731-3e-4c13.209 0 29.434 10.728 29.434 23.11l-2.5e-4 224.25z"/> <path d="m689.35 1039.1-2.5e-4 -118.87c6e-4 -12.763 10.348-23.108 23.11-23.108l90.565 0.0011c14.324-1e-3 26.063-11.066 26.063-24.867l3e-4 -37.024h-2.9508l-3.7e-4 37.024c0 12.036-10.277 21.917-23.113 21.918l-90.565-0.0011c-14.392 0-26.06 11.667-26.061 26.057l2.4e-4 118.87z"/> <path d="m335.61 1060.4-1.8e-4 -102.35c-6e-5 -12.966-14.598-22.68-31.437-22.679l-110.24-0.0011v3.0204l110.24 0.00135c16.215-0.0011 28.417 9.2402 28.417 19.658l1.8e-4 102.35z"/> <path d="m583.52 1322.6 5e-4 -119.2c0-13.626-6.4456-26.131-15.781-26.131l-52.698-2e-4c-6.5107 0-12.832-9.1103-12.832-21.982l7e-5 -37.133h-2.9507l-5e-5 37.133c2.5e-4 13.035 6.489 24.932 15.783 24.932l52.698 2e-4c6.4648 0 12.831 9.5682 12.831 23.18l-4.9e-4 119.2z"/> <path d="m158.12 771.54c-5.5e-4 24.892-20.18 45.075-45.077 45.075-24.895 0-45.075-20.183-45.074-45.075-2.35e-4 -24.896 20.179-45.077 45.075-45.077s45.076 20.182 45.076 45.077"/> <path d="m158.06 771.54c-5.2e-4 24.86-20.154 45.014-45.015 45.014s-45.014-20.154-45.013-45.014c-2.66e-4 -24.862 20.153-45.016 45.014-45.016 24.862 0 45.015 20.153 45.015 45.016h0.12284c-2.4e-4 -24.931-20.208-45.138-45.138-45.138-24.929 0-45.137 20.207-45.137 45.138-4.7e-4 24.927 20.207 45.137 45.136 45.137 24.93 0 45.138-20.211 45.138-45.137z"/> <path d="m195.07 928c9e-5 24.896-20.18 45.077-45.076 45.077-24.895 2.3e-4 -45.076-20.183-45.076-45.077 0-24.895 20.18-45.075 45.076-45.075 24.895 0 45.076 20.18 45.076 45.075"/> <path d="m195 928c8e-5 24.86-20.152 45.015-45.014 45.015-24.862 2.4e-4 -45.014-20.156-45.014-45.015 0-24.862 20.153-45.012 45.014-45.013 24.862 0 45.014 20.15 45.014 45.013h0.12282c6e-5 -24.929-20.207-45.138-45.137-45.138-24.929 2.3e-4 -45.137 20.209-45.137 45.138 3e-5 24.927 20.208 45.14 45.137 45.139 24.93 0 45.137-20.211 45.137-45.14z"/> <path d="m625.34 1356.1c-1.3e-4 24.893-20.18 45.075-45.075 45.075-24.896 0-45.076-20.184-45.076-45.075 1.3e-4 -24.896 20.18-45.078 45.076-45.078 24.895 0 45.075 20.183 45.075 45.078"/> <path d="m625.28 1356.1c-1.3e-4 24.86-20.153 45.014-45.014 45.014-24.862 0-45.014-20.154-45.014-45.014 1.2e-4 -24.862 20.152-45.016 45.014-45.016 24.861 0 45.014 20.154 45.014 45.016h0.1228c0-24.931-20.208-45.138-45.137-45.138-24.93 0-45.137 20.207-45.137 45.138 0 24.926 20.207 45.138 45.137 45.138 24.929 0 45.137-20.209 45.137-45.138z"/> <path d="m742.59 1497.8c-4.6e-4 24.892-20.181 45.076-45.077 45.076-24.895-2e-4 -45.075-20.184-45.075-45.077 1e-4 -24.896 20.181-45.076 45.075-45.075 24.896 0 45.076 20.18 45.076 45.076"/> <path d="m742.52 1497.8c-7.6e-4 24.861-20.154 45.016-45.015 45.016-24.861-3e-4 -45.014-20.156-45.013-45.016 1.4e-4 -24.863 20.153-45.013 45.014-45.013 24.862 0 45.014 20.15 45.014 45.013h0.12268c1.2e-4 -24.929-20.207-45.136-45.137-45.136-24.929-4e-4 -45.137 20.207-45.137 45.136-4.6e-4 24.926 20.207 45.137 45.136 45.137 24.93 0 45.137-20.209 45.138-45.137z"/> <path d="m986.89 1228.6c-1e-4 24.894-20.18 45.078-45.075 45.078-24.896 0-45.076-20.184-45.075-45.078 1.4e-4 -24.895 20.18-45.074 45.076-45.074 24.895 0 45.075 20.179 45.075 45.074"/> <path d="m986.83 1228.6c-2e-4 24.858-20.154 45.017-45.015 45.017-24.862 0-45.014-20.159-45.014-45.017 1.2e-4 -24.861 20.153-45.012 45.014-45.012s45.014 20.15 45.014 45.012h0.1228c1.5e-4 -24.929-20.208-45.134-45.137-45.134s-45.137 20.206-45.137 45.135c-4.9e-4 24.928 20.207 45.14 45.137 45.14 24.929 0 45.137-20.212 45.138-45.14z"/> <path d="m1128.2 973.85c-1e-4 24.895-20.18 45.078-45.076 45.078s-45.076-20.185-45.076-45.078c1e-4 -24.896 20.18-45.075 45.076-45.075 24.895 0 45.076 20.18 45.076 45.075"/> <path d="m1128.1 973.85c-2e-4 24.859-20.152 45.015-45.014 45.015s-45.015-20.158-45.015-45.015c2e-4 -24.862 20.152-45.014 45.015-45.014 24.862 0 45.014 20.152 45.014 45.014h0.123c3e-4 -24.928-20.208-45.138-45.137-45.138-24.93 0-45.137 20.209-45.137 45.138-1e-4 24.927 20.208 45.141 45.137 45.141s45.137-20.212 45.137-45.141z"/> <path d="m869.54 830.41c-1.2e-4 24.894-20.18 45.078-45.076 45.077-24.895 9.7e-4 -45.075-20.183-45.075-45.077 1e-4 -24.895 20.18-45.076 45.076-45.076 24.895 8.4e-4 45.075 20.181 45.074 45.076"/> <path d="m869.48 830.41c-1.4e-4 24.858-20.153 45.017-45.015 45.016-24.861 8.6e-4 -45.014-20.158-45.013-45.016 2e-4 -24.861 20.153-45.016 45.014-45.016 24.861 9.6e-4 45.013 20.153 45.013 45.016h0.1228c2e-4 -24.929-20.207-45.138-45.136-45.139-24.93-4e-5 -45.138 20.21-45.138 45.139-2.4e-4 24.927 20.208 45.138 45.137 45.138 24.929 1e-3 45.137-20.211 45.137-45.138z"/> <path d="m806.52 680.47c-1.4e-4 24.893-20.181 45.077-45.076 45.077-24.896-1e-3 -45.076-20.185-45.076-45.078 2.4e-4 -24.896 20.181-45.074 45.077-45.073 24.895 1.3e-4 45.076 20.178 45.075 45.074"/> <path d="m806.46 680.47c-1e-4 24.858-20.153 45.014-45.014 45.014-24.862-8.6e-4 -45.014-20.157-45.014-45.015 2e-4 -24.861 20.153-45.014 45.015-45.013 24.861 1.4e-4 45.014 20.153 45.014 45.014h0.1228c2.6e-4 -24.93-20.207-45.137-45.137-45.137-24.93-8.4e-4 -45.137 20.206-45.137 45.136-1.5e-4 24.927 20.207 45.138 45.137 45.138 24.93 2.5e-4 45.137-20.21 45.137-45.137z"/> <path d="m355.88 1367.1c-3e-5 24.892-20.18 45.077-45.075 45.077-24.896 0-45.075-20.185-45.075-45.077 0-24.896 20.18-45.075 45.076-45.075 24.895 0 45.075 20.18 45.075 45.075"/> <path d="m355.82 1367.1c-3e-5 24.86-20.153 45.015-45.014 45.015-24.862 0-45.014-20.155-45.014-45.015s20.153-45.015 45.014-45.015 45.014 20.154 45.014 45.015h0.12281c0-24.929-20.208-45.138-45.137-45.138-24.93 0-45.137 20.209-45.137 45.138-4e-5 24.927 20.207 45.137 45.136 45.137s45.137-20.211 45.137-45.137z"/> <path d="m199.41 1197.5c-6e-5 24.891-20.181 45.073-45.076 45.073s-45.076-20.182-45.076-45.073c1.5e-5 -24.896 20.18-45.077 45.076-45.077 24.895 0 45.076 20.181 45.076 45.077"/> <path d="m199.35 1197.5c-7e-5 24.86-20.153 45.012-45.015 45.012-24.861 0-45.014-20.152-45.014-45.012 2e-5 -24.862 20.153-45.014 45.014-45.014 24.862 0 45.015 20.152 45.015 45.014h0.12277c1e-5 -24.931-20.208-45.138-45.137-45.138s-45.137 20.207-45.137 45.138c0 24.926 20.208 45.136 45.137 45.136 24.93 0 45.137-20.209 45.137-45.136z"/> <path d="m921.7 941.25c1e-4 24.894-20.18 45.077-45.075 45.077s-45.075-20.185-45.076-45.078c0-24.895 20.18-45.074 45.075-45.074s45.076 20.18 45.076 45.075"/> <path d="m921.64 941.25c1.5e-4 24.86-20.153 45.015-45.014 45.015s-45.014-20.156-45.014-45.016 20.152-45.013 45.014-45.013c24.861 0 45.014 20.154 45.014 45.015h0.12295c1.5e-4 -24.929-20.207-45.138-45.137-45.138-24.929 0-45.137 20.208-45.137 45.136 1e-4 24.927 20.208 45.141 45.137 45.141 24.93 0 45.137-20.213 45.137-45.14z"/> <path d="m214.62 1075.8c3e-5 24.893-20.181 45.077-45.076 45.077s-45.075-20.184-45.075-45.077c3.4e-5 -24.895 20.18-45.075 45.076-45.075 24.895 0 45.076 20.18 45.076 45.075"/> <path d="m214.56 1075.8c3e-5 24.857-20.153 45.014-45.014 45.014s-45.014-20.157-45.014-45.014c3e-5 -24.86 20.153-45.014 45.014-45.014 24.862 0 45.014 20.154 45.014 45.014h0.12308c6e-5 -24.928-20.208-45.137-45.137-45.137-24.929-2e-4 -45.137 20.209-45.137 45.137-1.6e-5 24.926 20.207 45.14 45.137 45.14s45.137-20.213 45.137-45.14z"/> <path d="m160.54 1063.6h-71.449c-12.764 0-23.11-10.346-23.11-23.11l-2.46e-4 -68.504c0-14.323-11.065-26.064-24.864-26.065h-77.695l-1.5e-5 2.9506h77.695c12.032 9.7e-4 21.913 10.279 21.913 23.114l2.33e-4 68.504c-2.48e-4 14.392 11.667 26.06 26.06 26.06h71.449z"/> <path d="m220.64 937.34-1.9e-4 -53.908c9e-5 -14.775-18.438-26.059-32.384-26.059l-179.4-1e-3c-12.836 0-23.113-9.8808-23.113-21.916l4.88e-4 -63.232h-2.9502l-4.81e-4 63.232c0 13.801 11.738 24.866 26.063 24.866l179.4 0.0012c13.209 0 29.433 10.729 29.433 23.109l2.1e-4 53.908z"/> <path d="m32.203 762.44c8e-6 24.893-20.18 45.078-45.075 45.078-24.896 0-45.076-20.184-45.076-45.078 0-24.895 20.18-45.075 45.076-45.075 24.895 0 45.075 20.181 45.075 45.075"/> <path d="m32.142 762.44c0 24.86-20.153 45.015-45.014 45.015-24.862 0-45.014-20.155-45.014-45.015s20.152-45.015 45.014-45.015c24.861 0 45.014 20.155 45.014 45.015h0.1228c0-24.929-20.207-45.138-45.136-45.138-24.93 0-45.137 20.209-45.137 45.138 1.5e-5 24.927 20.207 45.138 45.137 45.138 24.929 0 45.137-20.212 45.137-45.138z"/> <path d="m-28.765 941.04c-7e-6 24.891-20.18 45.075-45.076 45.075-24.895 0-45.075-20.185-45.075-45.075 0-24.898 20.18-45.078 45.075-45.078 24.896 0 45.076 20.18 45.076 45.078"/> <path d="m-28.826 941.04c-8e-6 24.858-20.153 45.015-45.014 45.015s-45.014-20.157-45.014-45.015c-1e-5 -24.862 20.153-45.017 45.014-45.017 24.862 0 45.015 20.155 45.015 45.018h0.1228c-1.2e-5 -24.932-20.208-45.139-45.137-45.139s-45.136 20.207-45.136 45.139c-3e-5 24.924 20.208 45.138 45.137 45.138 24.93 0 45.137-20.214 45.137-45.138z"/> <path d="m630.19 751.97 359.64 0.00215c12.381 0 23.11 16.225 23.11 29.435l-8.4e-4 48.524h2.9502l8.3e-4 -48.524c0-13.947-11.283-32.385-26.061-32.385l-359.64-0.0023z"/> <path d="m1056.4 841.29c0 24.894-20.18 45.077-45.076 45.077-24.895 0-45.076-20.184-45.076-45.077 1.3e-4 -24.895 20.181-45.075 45.076-45.075s45.076 20.18 45.075 45.075"/> <path d="m1056.4 841.29c0 24.86-20.153 45.015-45.014 45.015s-45.014-20.155-45.014-45.015c1.4e-4 -24.86 20.153-45.014 45.014-45.014 24.862 0 45.014 20.154 45.014 45.014h0.123c1e-4 -24.929-20.208-45.138-45.137-45.138s-45.137 20.209-45.137 45.138c-1.3e-4 24.927 20.208 45.138 45.137 45.138s45.137-20.211 45.137-45.138z"/> <path d="m1003.9 670.6-111.9-1.2e-4c-14.777 0-26.061 18.438-26.061 32.382v48.525h2.9507v-48.525c0-13.208 10.73-29.432 23.11-29.432l111.9 6e-5z"/> <path d="m1069.8 666.15c-4e-4 24.893-20.18 45.077-45.076 45.077-24.895 0-45.075-20.184-45.074-45.077 1e-4 -24.896 20.18-45.075 45.075-45.075 24.896 0 45.076 20.18 45.076 45.075"/> <path d="m1069.7 666.15c-4e-4 24.86-20.153 45.014-45.015 45.014-24.861 0-45.013-20.154-45.013-45.014s20.153-45.013 45.013-45.013c24.862 0 45.015 20.152 45.015 45.013h0.1228c1e-4 -24.929-20.208-45.138-45.138-45.138-24.929 0-45.136 20.209-45.137 45.138-4e-4 24.926 20.208 45.139 45.136 45.139 24.93 0 45.138-20.213 45.138-45.139z"/> <path d="m-136.33 1182 58.934-1e-4c12.764 0 23.111 10.348 23.111 23.111l-2.29e-4 64.44c0 14.323 11.064 26.062 24.864 26.062l163.03 9e-4v-2.9492l-163.03-1e-3c-12.034 0-21.915-10.276-21.915-23.113l2.29e-4 -64.44c0-14.393-11.667-26.062-26.061-26.062l-58.934 2e-4z"/> <path d="m-81.521 1184.7c1.6e-5 24.891-20.18 45.075-45.076 45.075-24.895 5e-4 -45.075-20.183-45.075-45.075-2.9e-4 -24.895 20.18-45.077 45.075-45.077s45.076 20.182 45.076 45.077"/> <path d="m-81.583 1184.7c1e-5 24.86-20.153 45.014-45.014 45.014-24.861 5e-4 -45.014-20.154-45.014-45.014-2.6e-4 -24.862 20.153-45.014 45.014-45.015 24.862 0 45.014 20.152 45.014 45.015h0.1228c-2.4e-4 -24.931-20.207-45.138-45.137-45.138-24.929 2e-4 -45.137 20.207-45.136 45.138-3e-5 24.927 20.208 45.138 45.137 45.137 24.93 0 45.137-20.211 45.137-45.137z"/> <path d="m2.4381 729.92h1.1602c0.39233 0 0.71509-0.285 0.71509-0.6377 0-0.34764-0.32275-0.6346-0.71509-0.6346h-1.4106c-1.0696-2.871-5.7461-5.1854-11.778-5.8858-0.51685 0.83987-2.0518 1.4454-3.855 1.4454-1.8035 0-3.3191-0.60557-3.8562-1.4308-5.9961 0.6982-10.635 3.0001-11.723 5.8711h-1.4102c-0.39453 0-0.71558 0.28696-0.71558 0.6346 0 0.3527 0.32105 0.6377 0.71558 0.6377h1.1597zm-25.844 35.676h19.989c3.9629 0 5.5708-33.74 5.5708-33.74h-31.128c0-0.01856 1.5347 33.74 5.5669 33.74m-3.6209-5.0926c-0.64331-2.8272-1.2322-6.7599-1.7478-11.698-0.87598-8.3633-1.2678-16.836-1.2852-16.918l-0.055171-0.99706h33.389l-0.049316 0.99706c0 0.03614-0.038574 0.8898-0.12769 2.3174-0.034668 0.73156-0.088867 1.589-0.16064 2.5732-0.21191 3.2207-0.55347 7.6328-1.0171 12.027-0.39233 3.6973-0.82129 6.8436-1.2839 9.3809-0.16138 0.84168-0.30298 1.6221-0.46533 2.3174-0.015625 0.07896-0.033936 0.15821-0.051514 0.25376-0.96387 4.1602-1.9634 5.8085-3.5522 5.8085h-19.972c-1.6035-0.0165-2.657-1.7606-3.6211-6.0623m25.344 13.982 3.6025 21.681c0 1.7764-1.625 3.2042-3.6028 3.2042h-23.29c-1.9997 0-3.6064-1.4425-3.6064-3.2042l3.6067-21.681zm-3.6592 26.124c0 0.82423 0.74902 1.5067 1.6953 1.5067 0.92676 0 1.6951-0.66603 1.6951-1.5067v-0.27147h-3.3904zm-19.508 0c0 0.82423 0.75 1.5067 1.6941 1.5067 0.94727 0 1.6973-0.66603 1.6973-1.5067v-0.27147h-3.3909zm1.4441-33.09h-1.4438l-5e-6 6h22.88v-6h-1.446zm36.677-28.805-0.018311 0.17283-2.6226 17.553c-0.44653 2.6045-2.4624 4.332-5.0508 4.332h-4.3376c0-0.0147 0.017822-0.0292 0.017822-0.0625 0.17798-0.7598 0.33765-1.6024 0.50024-2.5039h3.8369c1.3381 0 2.0173-1.0976 2.1792-2.1298l2.6038-17.441c-0.034668-1.0331-0.99975-1.8574-2.1599-1.8574h-4.1592c0.073974-0.98424 0.12451-1.8564 0.16186-2.5732h3.9973c2.7852 0 5.0513 2.0177 5.0513 4.5099"/> <path d="m191.59 1060.8-7.0296 14.384c-1.563 3.2022-4.435 4.9991-6.4096 4.004l-16.801-8.3741c-1.982-0.9931-2.3177-4.3761-0.74779-7.5897l7.0232-14.392c1.5657-3.2002 4.4358-4.9961 6.4099-4.001l16.804 8.3691c1.9748 0.9971 2.3116 4.3926 0.75073 7.5926zm-11.914 25.655-1.249 2.5528c-0.27735 0.5703-0.79221 0.8887-1.1431 0.7197l-2.9876-1.4902c-0.35055-0.1836-0.4143-0.7766-0.13061-1.3487l1.2488-2.5674c0.27734-0.5703 0.78735-0.8886 1.1397-0.706l2.9871 1.4912c0.35128 0.168 0.4082 0.7783 0.13473 1.3486zm-4.3198 8.8438-1.2503 2.5654c-0.27951 0.5576-0.79003 0.8906-1.1387 0.7058l-2.9916-1.4892c-0.35672-0.168-0.41556-0.7781-0.13284-1.3504l1.2476-2.5508c0.28271-0.5722 0.78952-0.8886 1.146-0.7226l2.9851 1.4912c0.3533 0.168 0.41016 0.7783 0.1348 1.3506zm-4.321 8.8418-1.2503 2.5671c-0.28076 0.5706-0.79028 0.8888-1.1411 0.7208l-2.9924-1.491c-0.34766-0.1827-0.40649-0.793-0.12915-1.3636l1.2451-2.5505c0.28149-0.5723 0.78957-0.8887 1.145-0.7219l2.9853 1.5051c0.35623 0.1689 0.40872 0.7783 0.13748 1.334zm-6.7781-3.3643-1.2493 2.5508c-0.27511 0.5703-0.78637 0.8884-1.1409 0.7205l-2.9895-1.5056c-0.35077-0.169-0.40863-0.7784-0.13571-1.334l1.2536-2.5655c0.27174-0.5577 0.78859-0.8906 1.1377-0.708l2.9917 1.4912c0.3508 0.168 0.40964 0.7784 0.13229 1.3506zm-6.7729-3.3955-1.2534 2.5652c-0.27735 0.5725-0.78958 0.8889-1.1409 0.7219l-2.9885-1.4902c-0.35181-0.1836-0.41431-0.7783-0.13303-1.3518l1.2512-2.5642c0.27518-0.5723 0.79004-0.8909 1.1409-0.7229l2.9917 1.4914c0.34814 0.1826 0.40527 0.793 0.13211 1.3506zm-6.7803-3.3662-1.25 2.5508c-0.2786 0.572-0.78446 0.8884-1.1411 0.7217l-2.9864-1.5052c-0.35594-0.1688-0.41526-0.7634-0.13696-1.3366l1.2517-2.5645c0.27536-0.5723 0.78903-0.8887 1.1408-0.706l2.9886 1.4882c0.35401 0.169 0.41141 0.7793 0.1333 1.3516zm-1.1934-8.4258 1.2507-2.5498c0.27958-0.5732 0.78861-0.8916 1.1418-0.7226l2.9895 1.4902c0.34989 0.1836 0.40967 0.7793 0.13382 1.3496l-1.2527 2.5664c-0.27439 0.5567-0.78635 0.8897-1.1389 0.7061l-2.9873-1.4903c-0.35401-0.1669-0.4133-0.7766-0.13697-1.3496zm4.3221-8.8437 1.2539-2.5645c0.27518-0.5735 0.78519-0.8899 1.136-0.706l2.9907 1.488c0.35226 0.1692 0.41208 0.7793 0.13473 1.3518l-1.2507 2.5498c-0.27779 0.5733-0.78832 0.8916-1.1418 0.7207l-2.988-1.4883c-0.35129-0.1858-0.41333-0.7793-0.13473-1.3515zm7.9694 11.792-1.2493 2.5654c-0.2783 0.572-0.79001 0.8906-1.1386 0.707l-2.9948-1.4904c-0.34912-0.169-0.40894-0.7781-0.13257-1.3348l1.2527-2.5664c0.27906-0.5703 0.78853-0.8896 1.1408-0.7207l2.9871 1.4912c0.35324 0.1827 0.41528 0.7764 0.13473 1.3487zm5.5815-5.0303 1.2568-2.5645c0.2771-0.5722 0.78443-0.8906 1.138-0.708l2.988 1.4912c0.35451 0.1678 0.41114 0.7781 0.13257 1.3506l-1.2458 2.5508c-0.28055 0.5723-0.79004 0.8887-1.1467 0.7197l-2.9871-1.4882c-0.34912-0.1836-0.4111-0.7784-0.13575-1.3516zm1.0633 7.0605c0.3508 0.1827 0.41333 0.7784 0.13233 1.3506l-1.2507 2.5652c-0.27902 0.5725-0.78857 0.8909-1.1423 0.7083l-2.9876-1.4912c-0.35132-0.169-0.41016-0.7784-0.13281-1.3519l1.2492-2.5495c0.27883-0.5723 0.78467-0.8887 1.1409-0.7207l2.9905 1.4892zm-7.8372-10.441 1.2531-2.5664c0.2754-0.5703 0.78711-0.8896 1.1385-0.706l2.9868 1.4902c0.35351 0.169 0.4143 0.7774 0.13501 1.3496l-1.2471 2.5528c-0.28125 0.5722-0.79004 0.8886-1.1408 0.7197l-2.9922-1.4903c-0.34936-0.1816-0.40774-0.791-0.1333-1.3496zm33.649-31.677-18.257-9.1121c-3.3423-1.6741-8.2014 1.375-10.849 6.7839l-21.589 44.199c-2.646 5.426-2.0776 11.159 1.2664 12.833l18.257 9.1122c3.3447 1.6738 8.2048-1.374 10.851-6.7853l21.593-44.215c2.645-5.4229 2.0762-11.173-1.2715-12.83"/> <path d="m857.44 1107-0.0011 377.56c-8.6e-4 14.778 18.437 26.06 32.383 26.06h81.122v-2.9505h-81.122c-13.209 0-29.433-10.727-29.433-23.11l9.6e-4 -377.56z"/> <path d="m72.6 1432.3v-54.009c1.5e-5 -13.624-6.4455-26.13-15.781-26.13l-52.698-1e-3c-6.5105 0-12.832-9.1084-12.832-21.98l-2.48e-4 -37.134h-2.9502l4.92e-4 37.134c4e-6 13.034 6.4885 24.93 15.782 24.93l52.698 1e-3c6.4648 1e-4 12.831 9.5722 12.831 23.18l-1.5e-5 54.009z"/> <path d="m118.48 1456.5c0 24.892-20.181 45.075-45.076 45.075-24.895-0.0012-45.075-20.185-45.075-45.076-2.39e-4 -24.895 20.18-45.077 45.075-45.076 24.895 0 45.076 20.18 45.076 45.077"/> <path d="m118.42 1456.5c0 24.861-20.153 45.014-45.014 45.014-24.861-0.0012-45.013-20.154-45.013-45.016-2.34e-4 -24.862 20.153-45.015 45.013-45.014 24.862 0 45.014 20.151 45.014 45.015h0.12303c-4.26e-4 -24.931-20.208-45.137-45.137-45.137-24.929-0.0013-45.136 20.205-45.136 45.136 0 24.928 20.207 45.137 45.136 45.138 24.93 0 45.137-20.21 45.137-45.137z"/> <path d="m98.039 1456.7h64.535c12.764 0 23.11 10.347 23.11 23.11v1.4649c-6e-5 14.326 11.064 26.062 24.864 26.062l37.027 0.0011v-2.9502l-37.027-0.0011c-12.033 0-21.913-10.274-21.913-23.112v-1.4649c0-14.394-11.667-26.063-26.061-26.063h-64.535z"/> <path d="m314.58 1501.7c-3e-5 24.891-20.18 45.077-45.075 45.077-24.896-5e-4 -45.076-20.186-45.076-45.077 5.1e-4 -24.894 20.18-45.077 45.076-45.077 24.895 0 45.075 20.181 45.075 45.077"/> <path d="m314.52 1501.7c-4e-5 24.858-20.152 45.016-45.014 45.016-24.862-4e-4 -45.014-20.158-45.014-45.016 5e-4 -24.861 20.153-45.016 45.015-45.016 24.861 0 45.013 20.155 45.013 45.016h0.12281c5.2e-4 -24.929-20.207-45.139-45.136-45.139-24.93-2e-4 -45.137 20.21-45.138 45.139 0 24.926 20.207 45.137 45.137 45.138 24.929 0 45.136-20.211 45.136-45.138z"/> <path d="m1039.4 1372.3-77.132 2e-4c-12.38 0-23.11-16.224-23.11-29.434l-2.4e-4 -81.121h-2.9507l2.6e-4 81.121c0 13.947 11.283 32.384 26.061 32.384h77.132z"/> <path d="m1093.4 1365.5c-1e-4 24.893-20.181 45.077-45.076 45.077-24.896 2e-4 -45.075-20.183-45.074-45.077 0-24.896 20.179-45.076 45.075-45.076s45.076 20.181 45.076 45.076"/> <path d="m1093.3 1365.5c-1e-4 24.857-20.153 45.016-45.015 45.016-24.861 2e-4 -45.013-20.159-45.013-45.016 0-24.862 20.152-45.014 45.013-45.014 24.862 0 45.015 20.151 45.015 45.014h0.1226c0-24.929-20.208-45.139-45.137-45.139-24.929 3e-4 -45.136 20.21-45.136 45.139-1e-4 24.927 20.207 45.139 45.136 45.139 24.93 0 45.137-20.213 45.138-45.139z"/> <path d="m1254.2 1381c0 24.894-20.18 45.076-45.076 45.076s-45.075-20.182-45.075-45.076c0-24.896 20.18-45.075 45.076-45.075s45.076 20.179 45.075 45.075"/> <path d="m1254.1 1381c0 24.86-20.153 45.015-45.015 45.015-24.861 0-45.014-20.155-45.014-45.015 1e-4 -24.861 20.153-45.014 45.014-45.014 24.862 0 45.014 20.153 45.014 45.014h0.123c2e-4 -24.931-20.208-45.137-45.137-45.137-24.93 0-45.137 20.207-45.137 45.137 0 24.927 20.207 45.138 45.136 45.138 24.93 0 45.138-20.212 45.138-45.138z"/> <path d="m101.57 1449.3c0.01855-0.1484 0.03735-0.2793 0.01855-0.3603 0-0.0665-0.01855-0.1329-0.01855-0.167-0.03713 0.0166-0.09229 0.0505-0.16675 0.0839-0.09302 0.0479-0.1836 0.1309-0.31592 0.2471-0.38818 0.3438-0.90456 0.9873-1.4431 1.9734-0.53662 0.9873-0.77565 1.7451-0.85158 2.24-0.01709 0.1506-0.037585 0.2795-0.01709 0.3625 0 0.0645 0.01709 0.1319 0.01709 0.1648 0.038101-0.0146 0.093275-0.0476 0.16652-0.0808 0.094726-0.053 0.18628-0.1338 0.31592-0.248 0.3877-0.346 0.90772-0.9873 1.4424-1.9756 0.53856-0.9895 0.77906-1.7449 0.85256-2.24m-1.3518-0.3437h-0.0354c-1.0019 0-1.9456 0.5244-2.3697 1.3181-0.3159 0.5573-0.35399 1.1982-0.11351 1.79 0.11351 0.2666 0.26074 0.5117 0.46387 0.7285 0.18455-0.6933 0.51977-1.4511 0.81444-2.0107 0.33471-0.627 0.77712-1.3015 1.2403-1.8259m1.1858 2.862c-0.33154 0.627-0.79639 1.3018-1.2598 1.8281h0.03858c0.99926 0 1.9419-0.5263 2.3704-1.3154 0.31372-0.5625 0.35132-1.2031 0.10864-1.7949-0.10864-0.2617-0.25705-0.5117-0.4636-0.7263-0.14626 0.6931-0.4961 1.4675-0.7942 2.0085m-1.334-5.8457c0.03784 0.0667 0.074216 0.1165 0.11279 0.1506 0.0354-0.0341 0.07251-0.0839 0.10889-0.1506 0.0576-0.0808 0.1145-0.1971 0.14819-0.3435 0.16772-0.46 0.3352-1.2344 0.3352-2.3398 0-1.085-0.16748-1.876-0.3352-2.336-0.053955-0.1494-0.11037-0.2666-0.14819-0.3476-0.03638-0.0645-0.07349-0.1162-0.10889-0.1494-0.038574 0.0332-0.07495 0.0849-0.11279 0.1494-0.05422 0.081-0.11108 0.1982-0.14746 0.3476-0.16749 0.46-0.33398 1.2324-0.33398 2.336 0 1.0869 0.16649 1.8798 0.33398 2.3398 0.05518 0.1464 0.11204 0.2627 0.14746 0.3435m-0.99878-0.541c-0.1853-0.6931-0.24048-1.5154-0.24048-2.1257 0-0.6075 0.05517-1.4327 0.24048-2.1231-0.90772 0.3789-1.5366 1.1865-1.5366 2.1231 0 0.9414 0.64746 1.7468 1.5366 2.1257m3.7578-2.1423c0-0.9385-0.63088-1.762-1.5366-2.1231 0.18532 0.6924 0.24048 1.5156 0.24048 2.1231 0 0.6103-0.05516 1.4326-0.24048 2.1259 0.90576-0.3625 1.5366-1.1679 1.5366-2.1259m1.5368 15.052c0-0.25-0.2217-0.4465-0.49926-0.4465h-7.3694c-0.27686 0-0.50002 0.1965-0.50002 0.4465 0 0.2451 0.22316 0.4433 0.50002 0.4433h7.3694c0.27757 0 0.49926-0.1982 0.49926-0.4433m-0.49926 1.1171h-7.3694m7.8686 2.0098c0-0.248-0.2217-0.4434-0.49926-0.4434h-7.3694c-0.27686 0-0.50002 0.1954-0.50002 0.4434 0 0.2468 0.22316 0.4432 0.50002 0.4432h7.3694c0.27757 0 0.49926-0.1964 0.49926-0.4432m0 3.1289c0-0.248-0.2217-0.4455-0.49926-0.4455h-7.3694c-0.27686 0-0.50002 0.1975-0.50002 0.4455 0 0.2451 0.22316 0.4453 0.50002 0.4453h7.3694c0.27757 0 0.49926-0.2002 0.49926-0.4453m-0.97998-14.293c-0.20309-0.5263-0.57565-0.988-1.0556-1.3357 0-0.3935-0.1321-0.6894-0.44434-0.8203-0.093269-0.0332-0.18384-0.0664-0.29736-0.0664-0.22168 0-0.46313 0.0996-0.70264 0.2635-0.24194-0.0496-0.46216-0.0662-0.70264-0.0662-1.2974 0-2.5024 0.6768-3.0552 1.6951-0.39038 0.7265-0.44556 1.5488-0.14991 2.3066 0.20508 0.5264 0.5747 0.9863 1.0576 1.332 0 0.3975 0.12769 0.6934 0.4419 0.8243 0.09228 0.0332 0.18701 0.0662 0.29782 0.0662 0.22168 0 0.46216-0.0994 0.70264-0.2635 0.24147 0.0479 0.46413 0.0664 0.7051 0.0664 1.2944 0 2.4983-0.6748 3.0537-1.6973 0.38771-0.7216 0.44338-1.5293 0.14894-2.3047m-6.5913-7.0153c0 1.416 1.1096 2.6025 2.5913 2.9316 0.20313 0.3457 0.46214 0.5762 0.79736 0.5762 0.33153 0 0.61058-0.2305 0.7959-0.5762 1.4797-0.3291 2.5913-1.5156 2.5913-2.9316 0-1.4131-1.1116-2.6026-2.5913-2.9287-0.2041-0.3458-0.46437-0.5772-0.7959-0.5772-0.33522 0-0.61083 0.2314-0.79736 0.5772-1.4822 0.3261-2.5913 1.5156-2.5913 2.9287m9.165-4.6905-3e-5 28.896c0 0.427-0.38892 0.7893-0.88916 0.7893h-9.7947c-0.48096 0-0.88893-0.3457-0.88893-0.7893l2e-5 -28.896c3e-5 -0.4282 0.38921-0.7885 0.88896-0.7885h9.7946c0.50025 0.0146 0.88916 0.3603 0.88915 0.7885m0.75732 0c2e-5 -0.8071-0.73974-1.4487-1.6277-1.4487h-9.7946c-0.90773 0-1.6292 0.6602-1.6292 1.4487l-2.6e-5 28.896c0 0.8089 0.74025 1.4475 1.6292 1.4475h9.7946c0.90576 0 1.6277-0.6582 1.6277-1.4475zm-18.162 1.6612c-0.35228-1.2344-1.8159-2.4019-3.2033-2.5662-13.461-1.5808-26.753-1.5808-40.216-9e-4 -1.3877 0.1788-2.8511 1.3482-3.2036 2.5658-2.165 8.5469-2.165 16.614 0 25.16 0.35254 1.2363 1.8159 2.4042 3.2036 2.5692 13.464 1.5813 26.755 1.5813 40.216 0.0012 1.3874-0.1816 2.8511-1.3515 3.2033-2.5693 2.1663-8.544 2.1663-16.613 2.5e-5 -25.16m21.478-4.2964-5e-5 35.979-73.266-0.0012 1e-5 -35.979c0-1.2344 1.1299-2.2403 2.519-2.2403l68.247 0.0011c1.3892 0 2.4995 1.0059 2.4995 2.2403m-73.266 37.87c0 1.2324 1.1294 2.2393 2.519 2.2393l68.247 0.0012c1.3891 0 2.5193-1.0069 2.5193-2.2393v-1.2344l-73.285-0.0012zm63.044 4.4788c0 0.4948 0.44458 0.8906 1.0007 0.8906h3.0923c0.55638 0 1.0007-0.3958 1.0007-0.8906v-1.5635h-5.1104v1.5635zm-57.934-1.5647h5.1116v1.5634c0 0.4952-0.44434 0.8907-1.0024 0.8907h-3.1091c-0.55542 0-1-0.3955-1-0.8907z"/> <path d="m1157.9 889.96-111.9-1.5e-4c-14.777 0-26.06 18.438-26.061 32.384l1.2e-4 48.526h2.9499l-1e-4 -48.526c1e-4 -13.209 10.73-29.434 23.111-29.434l111.9 2.7e-4z"/> <path d="m1245.4 888.12c2e-4 24.894-20.18 45.077-45.076 45.077-24.895 0-45.075-20.183-45.076-45.077 1e-4 -24.895 20.181-45.075 45.076-45.075 24.896 0 45.076 20.18 45.076 45.075"/> <path d="m1245.3 888.12c1e-4 24.86-20.152 45.015-45.014 45.015-24.861 0-45.013-20.154-45.014-45.014 1e-4 -24.86 20.152-45.015 45.014-45.015s45.014 20.155 45.014 45.015h0.1229c5e-4 -24.928-20.207-45.135-45.137-45.135-24.929 0-45.137 20.207-45.137 45.136 5e-4 24.927 20.208 45.137 45.137 45.137 24.93 0 45.138-20.211 45.137-45.138z"/> <path d="m318.89 676.8-78.096 8.4e-4c-14.777 0-26.061 18.436-26.061 32.383l1.2e-4 73.11h2.9502l-1.6e-4 -73.11c0-13.209 10.73-29.432 23.111-29.432l78.096-7e-4z"/> <path d="m394.07 671.9c-1.4e-4 24.891-20.18 45.075-45.076 45.075-24.895-1e-4 -45.075-20.183-45.075-45.074 3e-5 -24.897 20.18-45.075 45.075-45.075 24.896 0 45.076 20.178 45.076 45.074"/> <path d="m394.01 671.9c-1.6e-4 24.858-20.153 45.015-45.015 45.015-24.862-1.2e-4 -45.013-20.156-45.013-45.015 3e-5 -24.862 20.152-45.014 45.013-45.014 24.862 0 45.015 20.152 45.014 45.014h0.12304c4.9e-4 -24.93-20.208-45.137-45.137-45.137-24.929-6e-5 -45.137 20.207-45.137 45.137-3e-5 24.925 20.207 45.137 45.136 45.137 24.93 0 45.137-20.213 45.138-45.138z"/> <path d="m1030.2 1508.9c-1e-4 24.894-20.18 45.078-45.076 45.078-24.895 0-45.076-20.184-45.075-45.078 6.1e-4 -24.895 20.181-45.075 45.076-45.075 24.896 2e-4 45.076 20.181 45.075 45.075"/> <path d="m1030.2 1508.9c-1e-4 24.858-20.153 45.015-45.014 45.015s-45.014-20.157-45.014-45.015c6.1e-4 -24.86 20.153-45.014 45.015-45.014 24.862 2e-4 45.014 20.154 45.014 45.015h0.1226c3e-4 -24.928-20.207-45.137-45.136-45.138-24.929 0-45.136 20.21-45.137 45.138-1.2e-4 24.926 20.207 45.14 45.136 45.14 24.93 2e-4 45.137-20.213 45.137-45.14z"/> <path d="m1248.9 1133 7e-4 -78.91c7e-4 -14.392-11.668-26.058-26.06-26.058l-208.89-5e-4c-12.836 0-23.113-9.8809-23.113-21.917l1e-4 -37.025h-2.9504l-1.5e-4 37.025c0 13.802 11.738 24.867 26.063 24.867l208.89 2e-4c12.762 0 23.11 10.345 23.11 23.108l-4e-4 78.91z"/> <path d="m1291.5 1147.8c3e-4 24.892-20.18 45.077-45.076 45.077s-45.076-20.186-45.076-45.077c1e-4 -24.895 20.181-45.077 45.077-45.077s45.076 20.182 45.075 45.077"/> <path d="m1291.4 1147.8c2e-4 24.859-20.152 45.014-45.014 45.014-24.861 0-45.014-20.156-45.014-45.015 1e-4 -24.864 20.153-45.014 45.014-45.014 24.862 0 45.013 20.151 45.013 45.015h0.1231c1e-4 -24.93-20.207-45.138-45.136-45.138s-45.138 20.207-45.138 45.137c2e-4 24.927 20.208 45.138 45.138 45.138s45.137-20.21 45.137-45.137z"/> <path d="m698.27 1050.4-1.7329 25.753q-12.318 77.828-72.081 124.49-60.178 46.624-141.73 37.811-77.827-12.317-124.49-72.082-14.951-19.318-24.63-42.098l-8.1347-23.421q-6.7044-24.173-6.7798-50.453 2.0354-80.649 55.588-134.2 53.552-53.551 134.2-55.585 80.647 2.0344 134.2 55.585 53.552 53.553 55.587 134.2"/> </g> <g fill="#fff" stroke-linejoin="miter"> <path d="m524.94 911.81c85.18 83.986 86.116 197.27 2.6709 281.9-0.87963 0.8924-1.7744 1.7862-2.6728 2.6709l-9.952-10.093c0.84851-0.8369 1.7-1.6884 2.5302-2.5322v2e-3c77.91-79.02 77.114-183.33-2.53-261.86zm-127.61 223.66c66.508-47.449 155.79-47.449 222.3 2e-4l-8.2333 11.542c-61.584-43.936-144.26-43.936-205.84-1e-4zm107.04-214.89c-80.213 79.081-81.018 184.14-2.5516 263.74 0.83911 0.8496 1.6941 1.7048 2.551 2.5488l-9.9531 10.095c-0.90356-0.8908-1.8086-1.7939-2.6934-2.6933v0.0019c-84.001-85.207-83.057-199.24 2.6941-283.78zm3.4413 2.1815c-72.422 0.37317-130.83 59.383-130.45 131.8 0.36612 72.431 59.38 130.83 131.81 130.46l-4.8e-4 0.0027c72.417-0.3747 130.83-59.382 130.46-131.81-0.36705-71.894-58.56-130.09-130.46-130.46h0.0599l-1.4251 0.00683c-1.8882 0.00597-3.7013-0.74123-5.0366-2.0781-1.335-1.334-2.0818-3.1494-2.0746-5.0378v-0.00403l7.1247 7.1132m-0.07273-14.176c1.8908-0.00781 3.7073 0.7373 5.0455 2.0742 1.3382 1.3358 2.0866 3.1512 2.0794 5.042v0.0039l-7.1114-7.1133 1.4246-0.00684 0.05976 0.00294c79.668 0.4091 144.15 64.894 144.56 144.56v-0.0019c0.41624 80.256-64.313 145.64-144.56 146.06h-9.8e-4c-80.255 0.4063-145.65-64.307-146.05-144.57-0.41617-80.249 64.308-145.64 144.56-146.05zm7.8374 7.0888-0.0013 276.44h-14.177l0.00125-276.44zm131.14 145.31-276.45 4e-3 -9.8e-4 -14.178 276.45-0.0039zm-241.14-96.022c61.58 43.93 144.25 43.93 205.84 1e-4l8.2329 11.54c-66.511 47.447-155.8 47.449-222.3-1.4e-4z"/> <path d="m22.746 1104.3c8.6404 0 11.751-8.6504 12.566-15.757 1.0046-8.7539-3.1343-15.345-12.561-15.347-9.4248-0.0019-13.568 6.586-12.566 15.343 0.81347 7.1055 3.9197 15.76 12.561 15.761z"/> <path d="m46.116 1124.9c-0.094242-2.7589-0.417-5.5292-0.8977-8.2433-0.58252-3.2898-1.3237-8.1104-4.1946-10.254-1.6602-1.2393-3.8103-1.6455-5.7109-2.3936-0.92554-0.3643-1.7544-0.7256-2.5322-1.1367-2.6257 2.8796-6.05 4.3848-10.037 4.3848-3.9858-1e-3 -7.4087-1.5079-10.034-4.3877-0.77783 0.4108-1.6067 0.7724-2.5317 1.1345-1.9014 0.7473-4.052 1.1535-5.7124 2.3928-2.8721 2.1424-3.6147 6.9647-4.1985 10.253-0.48169 2.7139-0.80542 5.4834-0.90039 8.2422-0.07373 2.1357 0.9812 2.4355 2.7681 3.0801 2.2375 0.8076 4.5476 1.4072 6.873 1.8994 4.4917 0.949 9.1213 1.6787 13.731 1.7119 4.6101-0.0312 9.24-0.7598 13.732-1.707 2.3257-0.4912 4.6362-1.0889 6.8743-1.8965 1.7871-0.6445 2.8423-0.9436 2.7693-3.0792z"/> <path d="m584.22 1351.2c8.6403 0 11.751-8.6504 12.566-15.758 1.0044-8.7539-3.1343-15.345-12.561-15.347-9.4244-0.0017-13.567 6.5863-12.566 15.343 0.8137 7.1055 3.9198 15.76 12.561 15.762z"/> <path d="m607.59 1371.8c-0.09425-2.7586-0.41675-5.5281-0.89759-8.243-0.58251-3.29-1.3236-8.1103-4.1946-10.255-1.6605-1.2383-3.8106-1.6456-5.7113-2.3936-0.9253-0.3645-1.7544-0.7256-2.5322-1.137-2.6258 2.8802-6.0494 4.385-10.037 4.385-3.9856-9e-4 -7.4087-1.5078-10.034-4.3876-0.7776 0.4111-1.6065 0.7724-2.5318 1.1347-1.9012 0.7471-4.052 1.1533-5.7121 2.3926-2.8721 2.1423-3.6145 6.9648-4.1985 10.253-0.4817 2.7141-0.8053 5.4836-0.9003 8.2424-0.0736 2.1367 0.9812 2.4364 2.7678 3.08 2.2376 0.8086 4.5478 1.4072 6.8733 1.8994 4.4917 0.9492 9.1212 1.6784 13.731 1.7119 4.6101-0.0313 9.2403-0.7598 13.732-1.707 2.3261-0.4912 4.6364-1.0889 6.8742-1.8965 1.7874-0.6446 2.8424-0.9433 2.7696-3.0792z"/> <path d="m696.8 1496.8c8.6404 0 11.752-8.6502 12.567-15.757 1.0047-8.7548-3.1345-15.345-12.561-15.347-9.4246-2e-3 -13.568 6.5856-12.566 15.342 0.81333 7.1055 3.9195 15.76 12.561 15.761z"/> <path d="m720.17 1517.4c-0.0942-2.7577-0.4167-5.5282-0.89744-8.2431-0.58276-3.289-1.3239-8.1103-4.1946-10.254-1.6603-1.2392-3.8104-1.6465-5.7111-2.3935-0.9255-0.3643-1.7544-0.7256-2.5321-1.1367-2.626 2.8789-6.0497 4.3847-10.037 4.3847-3.9858-0.0012-7.4088-1.5088-10.034-4.3877-0.77784 0.4112-1.6068 0.7722-2.532 1.1345-1.9012 0.7471-4.0518 1.1531-5.7119 2.3916-2.8718 2.1436-3.615 6.9649-4.1985 10.254-0.4818 2.7138-0.80553 5.4834-0.9006 8.2421-0.0734 2.1358 0.9814 2.4356 2.7683 3.0799 2.2375 0.8078 4.5475 1.4074 6.8732 1.8986 4.4916 0.9494 9.1214 1.6799 13.731 1.7131 4.6102-0.0314 9.24-0.761 13.732-1.7081 2.3257-0.4912 4.636-1.0878 6.8743-1.8967 1.7871-0.6433 2.8419-0.9421 2.7693-3.0788z"/> <path d="m761.54 1297.1c8.6403 0 11.751-8.6504 12.567-15.757 1.0045-8.7549-3.1346-15.345-12.561-15.347-9.4248-0.0017-13.568 6.5862-12.566 15.343 0.81346 7.1056 3.9198 15.76 12.561 15.761z"/> <path d="m784.91 1317.7c-0.09423-2.7578-0.417-5.5283-0.8978-8.2434-0.58254-3.2889-1.3236-8.1103-4.1945-10.254-1.6605-1.2392-3.8104-1.6463-5.711-2.3934-0.92576-0.3648-1.7547-0.7258-2.5325-1.1372-2.6259 2.8789-6.0501 4.3849-10.037 4.3849-3.9856-1e-3 -7.4088-1.5088-10.034-4.3876-0.77807 0.4111-1.6068 0.7725-2.532 1.1348-1.9012 0.747-4.052 1.1532-5.7119 2.3915-2.8723 2.1433-3.6147 6.9647-4.1985 10.254-0.48195 2.7141-0.80565 5.4836-0.90065 8.2424-0.0737 2.1358 0.98134 2.4356 2.7683 3.0801 2.2374 0.8076 4.5475 1.4072 6.8728 1.8984 4.4918 0.9491 9.1212 1.6787 13.731 1.7129 4.61-0.0312 9.24-0.7607 13.732-1.7077 2.3259-0.4913 4.6362-1.0889 6.8743-1.8965 1.7874-0.6436 2.8422-0.9424 2.7693-3.0791z"/> <path d="m984.33 1505.7c8.6404 0 11.751-8.6504 12.566-15.757 1.0047-8.7536-3.134-15.344-12.561-15.346-9.4247-2e-3 -13.568 6.5859-12.566 15.342 0.81348 7.1055 3.9197 15.76 12.561 15.761z"/> <path d="m1007.7 1526.4c-0.0941-2.7589-0.41687-5.5292-0.8976-8.2433-0.5825-3.2897-1.3237-8.1102-4.1948-10.254-1.6603-1.2393-3.8104-1.6457-5.7112-2.3938-0.9254-0.3643-1.7543-0.7256-2.5321-1.1367-2.6257 2.8797-6.0498 4.3848-10.037 4.3848-3.9857-1e-3 -7.4089-1.5079-10.034-4.3877-0.7777 0.411-1.6066 0.7724-2.5316 1.1345-1.9014 0.7473-4.052 1.1535-5.7125 2.3928-2.8718 2.1426-3.6144 6.9648-4.1982 10.253-0.48156 2.7139-0.8053 5.4834-0.9004 8.242-0.0737 2.136 0.9812 2.4358 2.768 3.0803 2.2376 0.8076 4.5477 1.4072 6.8731 1.8994 4.4917 0.9491 9.1212 1.6787 13.732 1.7119 4.61-0.0312 9.24-0.7597 13.732-1.707 2.3259-0.491 4.6365-1.0886 6.8744-1.8963 1.7874-0.6445 2.8424-0.9435 2.7694-3.0793z"/> <path d="m941.33 1228.3c8.6405 0 11.752-8.6503 12.567-15.757 1.0044-8.7549-3.1343-15.345-12.561-15.347-9.4248-2e-3 -13.568 6.5859-12.566 15.343 0.8135 7.1055 3.9197 15.76 12.561 15.761z"/> <path d="m964.7 1248.9c-0.09425-2.758-0.41676-5.5283-0.8975-8.2431-0.58273-3.2891-1.3239-8.1104-4.1949-10.254-1.6603-1.2395-3.8102-1.6465-5.7111-2.3936-0.9254-0.3642-1.7541-0.7256-2.5321-1.1367-2.626 2.8789-6.0497 4.3848-10.037 4.3848-3.986-1e-3 -7.409-1.5088-10.034-4.3878-0.77794 0.411-1.6068 0.7725-2.5321 1.1346-1.901 0.7473-4.0517 1.1535-5.712 2.3918-2.8721 2.1436-3.6148 6.9649-4.1985 10.254-0.4818 2.7139-0.8055 5.4834-0.9004 8.2422-0.0736 2.1358 0.98147 2.4356 2.7683 3.0801 2.2373 0.8076 4.5476 1.4072 6.8731 1.8984 4.4917 0.9493 9.1213 1.6797 13.731 1.7129 4.6102-0.0312 9.24-0.7597 13.732-1.707 2.3255-0.4922 4.6358-1.0889 6.874-1.8975 1.7873-0.6435 2.8423-0.9426 2.7694-3.0791z"/> <path d="m1209.3 1378.8c8.6406 0 11.752-8.6504 12.567-15.757 1.0044-8.7545-3.1342-15.344-12.561-15.346-9.4248-0.0032-13.568 6.5859-12.567 15.342 0.8135 7.1064 3.9199 15.761 12.561 15.761z"/> <path d="m1232.7 1399.4c-0.0943-2.7588-0.417-5.5285-0.8975-8.2431-0.5828-3.2893-1.324-8.1104-4.1951-10.255-1.6601-1.238-3.81-1.6452-5.7109-2.3923-0.9254-0.3643-1.7541-0.7258-2.5322-1.1367-2.626 2.8789-6.0496 4.3838-10.037 4.3838-3.9861-1e-3 -7.409-1.5081-10.034-4.387-0.7781 0.4114-1.6069 0.7717-2.5322 1.134-1.9011 0.7478-4.0518 1.1534-5.7119 2.3926-2.8721 2.1436-3.6148 6.9646-4.1985 10.253-0.4819 2.7139-0.8057 5.4844-0.9004 8.2432-0.0737 2.1358 0.9814 2.4356 2.7681 3.08 2.2375 0.8076 4.5478 1.4073 6.8733 1.8985 4.4917 0.9493 9.1213 1.6787 13.731 1.7117 4.6103-0.031 9.24-0.7595 13.732-1.707 2.3255-0.4912 4.6358-1.0887 6.8741-1.8963 1.7873-0.6448 2.8422-0.9433 2.7692-3.0791z"/> <path d="m1051.5 1360.8c8.6406 0 11.751-8.6504 12.566-15.757 1.0046-8.755-3.1342-15.344-12.561-15.346-9.4248-0.0019-13.568 6.5857-12.567 15.342 0.8137 7.1055 3.9199 15.76 12.561 15.761z"/> <path d="m1074.8 1381.4c-0.0942-2.758-0.417-5.5283-0.8976-8.243-0.5825-3.2891-1.3237-8.1104-4.195-10.254-1.6599-1.2393-3.8101-1.6465-5.7107-2.3936-0.9256-0.3642-1.7544-0.7256-2.5325-1.1367-2.6257 2.8789-6.0496 4.3848-10.037 4.3848-3.9861-1e-3 -7.409-1.5088-10.034-4.3877-0.7778 0.4109-1.6066 0.7724-2.5319 1.1345-1.9011 0.7473-4.052 1.1535-5.7119 2.3918-2.8719 2.1438-3.6145 6.9651-4.1983 10.254-0.482 2.7137-0.8058 5.4833-0.9005 8.2421-0.074 2.1357 0.9812 2.4355 2.7681 3.08 2.2373 0.8074 4.5473 1.407 6.8728 1.8982 4.4914 0.9492 9.1213 1.6797 13.731 1.7129 4.6103-0.0312 9.24-0.7597 13.732-1.707 2.3256-0.4922 4.6362-1.0889 6.8742-1.8975 1.7874-0.6435 2.8423-0.9426 2.7691-3.0791z"/> <path d="m1071.1 1178.1c8.6406 0 11.751-8.6504 12.566-15.757 1.0046-8.7546-3.1343-15.344-12.561-15.346-9.4249-2e-3 -13.568 6.5859-12.567 15.343 0.8137 7.1055 3.9199 15.76 12.561 15.76z"/> <path d="m1094.5 1198.7c-0.094-2.7588-0.4167-5.5283-0.8974-8.2432-0.5828-3.289-1.3237-8.1102-4.195-10.254-1.6599-1.2393-3.81-1.6465-5.7109-2.3936-0.9253-0.3642-1.7542-0.7258-2.5323-1.1367-2.6257 2.8789-6.0495 4.3846-10.037 4.3846-3.9861-8e-4 -7.4089-1.5089-10.034-4.3878-0.7778 0.4114-1.6067 0.7725-2.532 1.135-1.9011 0.7469-4.052 1.1532-5.7121 2.3916-2.8719 2.1436-3.6147 6.9648-4.1984 10.254-0.4819 2.7136-0.8057 5.4834-0.9004 8.2422-0.074 2.1358 0.9812 2.4356 2.7681 3.08 2.2375 0.8075 4.5476 1.4073 6.873 1.8985 4.4915 0.9492 9.1213 1.6787 13.731 1.7129 4.6104-0.0312 9.2401-0.7607 13.732-1.7082 2.3257-0.4912 4.6362-1.0888 6.8743-1.8963 1.7868-0.6445 2.8422-0.9423 2.769-3.0791z"/> <path d="m1247 1147.1c8.6403 0 11.751-8.6503 12.566-15.757 1.0042-8.7549-3.1342-15.345-12.561-15.347-9.4244-0.0019-13.567 6.586-12.566 15.343 0.8135 7.1053 3.9196 15.76 12.561 15.76z"/> <path d="m1270.4 1167.7c-0.0945-2.7581-0.4172-5.5284-0.8977-8.2432-0.5825-3.2891-1.3237-8.1104-4.1946-10.254-1.6604-1.2395-3.8105-1.6467-5.7114-2.3936-0.9255-0.3642-1.7544-0.7256-2.532-1.1367-2.6257 2.8789-6.0495 4.3848-10.037 4.3848-3.9853-0.0012-7.4087-1.5088-10.034-4.3877-0.7776 0.411-1.6065 0.7724-2.5315 1.1345-1.9014 0.7473-4.052 1.1536-5.7124 2.3918-2.8719 2.1436-3.6148 6.9649-4.1985 10.254-0.4814 2.7138-0.8052 5.4834-0.9002 8.2421-0.0737 2.1358 0.9815 2.4356 2.7679 3.0801 2.2378 0.8076 4.5478 1.4072 6.8735 1.8985 4.4917 0.9492 9.1211 1.6797 13.731 1.7128 4.6101-0.0314 9.24-0.7597 13.732-1.707 2.3262-0.4922 4.6365-1.0888 6.8743-1.8974 1.7876-0.6436 2.8425-0.9427 2.7697-3.0791z"/> <path d="m1203.9 886.65c8.6404 0 11.751-8.6503 12.566-15.757 1.0048-8.7536-3.1338-15.345-12.561-15.346-9.4248-0.00206-13.568 6.586-12.567 15.343 0.8135 7.1054 3.9196 15.76 12.561 15.761z"/> <path d="m1227.3 907.25c-0.094-2.7589-0.4167-5.5293-0.8975-8.2442-0.5827-3.289-1.3237-8.1094-4.1948-10.254-1.6604-1.2392-3.8103-1.6454-5.7114-2.3934-0.9251-0.3643-1.7539-0.7256-2.5317-1.1368-2.6258 2.8799-6.0499 4.3848-10.037 4.3848-3.9855-0.0011-7.4088-1.5088-10.034-4.3877-0.7776 0.41116-1.6064 0.7725-2.5317 1.1347-1.9011 0.74719-4.0518 1.1534-5.7124 2.3916-2.8719 2.1437-3.6143 6.9658-4.1981 10.254-0.4816 2.7139-0.8053 5.4834-0.9006 8.2421-0.0734 2.1358 0.9815 2.4355 2.7681 3.0802 2.2378 0.80764 4.5479 1.4072 6.8732 1.8983 4.4918 0.9503 9.1213 1.6798 13.732 1.7129 4.6099-0.03127 9.24-0.75967 13.732-1.707 2.326-0.4913 4.6363-1.0888 6.8741-1.8964 1.7876-0.6447 2.8427-0.9435 2.7697-3.0791z"/> <path d="m1083.4 974.89c8.6404 0 11.751-8.6504 12.566-15.757 1.0045-8.7547-3.1346-15.345-12.561-15.347-9.4248-0.00185-13.568 6.5862-12.566 15.343 0.8135 7.1056 3.9194 15.76 12.561 15.761z"/> <path d="m1106.8 995.5c-0.0939-2.7586-0.4166-5.5281-0.8971-8.243-0.5828-3.2889-1.324-8.1104-4.1948-10.255-1.6604-1.2383-3.8103-1.6455-5.7112-2.3926-0.9253-0.3643-1.7541-0.72565-2.532-1.1368-2.626 2.8789-6.0498 4.3848-10.037 4.3848-3.9859-0.00185-7.409-1.5088-10.034-4.3877-0.7778 0.41124-1.6067 0.7725-2.5321 1.1349-1.901 0.7469-4.0516 1.1532-5.712 2.3916-2.8721 2.1434-3.6148 6.9648-4.1985 10.254-0.4817 2.7129-0.8054 5.4834-0.9005 8.2422-0.0735 2.1356 0.9812 2.4356 2.7683 3.08 2.2371 0.8076 4.5474 1.4074 6.873 1.8986 4.4915 0.9491 9.1214 1.6786 13.732 1.7118 4.6101-0.0312 9.24-0.7598 13.732-1.7071 2.3257-0.4912 4.636-1.0888 6.874-1.8965 1.7872-0.64441 2.8423-0.94334 2.7696-3.0791z"/> <path d="m879.07 937.44c8.6404 0 11.751-8.6503 12.566-15.757 1.0046-8.7548-3.1342-15.345-12.561-15.347-9.4247-0.0029-13.568 6.5858-12.566 15.342 0.8135 7.1064 3.9197 15.761 12.561 15.762z"/> <path d="m902.44 958.05c-0.09436-2.7587-0.41686-5.5281-0.89746-8.243-0.583-3.2893-1.324-8.1106-4.1951-10.255-1.6601-1.2382-3.8103-1.6455-5.7113-2.3927-0.92527-0.36423-1.7541-0.72544-2.5318-1.1367-2.626 2.8789-6.0498 4.3848-10.037 4.3848-3.9857-0.00186-7.4088-1.5087-10.034-4.3876-0.77771 0.41113-1.6065 0.77246-2.5318 1.1338-1.9011 0.74804-4.0518 1.1542-5.7122 2.3926-2.8718 2.1435-3.6148 6.9648-4.1981 10.253-0.4818 2.7139-0.80554 5.4843-0.9005 8.2431-0.0735 2.1357 0.98144 2.4356 2.7682 3.0801 2.2376 0.80762 4.5477 1.4072 6.8732 1.8985 4.4917 0.9492 9.1214 1.6787 13.731 1.712 4.61-0.03124 9.24-0.7599 13.732-1.7071 2.3258-0.4911 4.6361-1.0889 6.874-1.8965 1.7875-0.64443 2.8424-0.94326 2.7697-3.0791z"/> <path d="m1011.7 839.49c8.6404 0 11.751-8.6505 12.566-15.757 1.0044-8.7539-3.1343-15.345-12.561-15.347-9.4244-0.00207-13.568 6.586-12.566 15.343 0.81347 7.1055 3.9197 15.76 12.561 15.761z"/> <path d="m1035.1 860.1c-0.0943-2.7588-0.417-5.5293-0.8975-8.244-0.5828-3.2892-1.324-8.1095-4.1948-10.254-1.6605-1.2391-3.8105-1.6452-5.7113-2.3933-0.92556-0.36425-1.7544-0.72564-2.5322-1.1367-2.6258 2.8796-6.0497 4.3846-10.037 4.3846-3.9858-0.0011-7.4089-1.5089-10.034-4.3877-0.77796 0.41114-1.6068 0.77247-2.5318 1.1348-1.9014 0.74707-4.052 1.1534-5.7122 2.3915-2.8721 2.1437-3.6149 6.9658-4.1986 10.254-0.48167 2.7139-0.80542 5.4834-0.90027 8.2422-0.07386 2.1357 0.9812 2.4354 2.7681 3.0801 2.2373 0.8076 4.5473 1.4072 6.8733 1.8984 4.4914 0.9501 9.1211 1.6797 13.731 1.7128 4.6101-0.03115 9.24-0.75966 13.732-1.707 2.3262-0.49121 4.6365-1.0888 6.8743-1.8965 1.7876-0.64453 2.8425-0.94336 2.7698-3.0791z"/> <path d="m1025.7 662.78c8.6404 0 11.751-8.6504 12.566-15.757 1.0044-8.7549-3.1341-15.345-12.561-15.347-9.4248-0.00294-13.568 6.586-12.566 15.342 0.81336 7.1064 3.9197 15.761 12.561 15.762z"/> <path d="m1049.1 683.39c-0.0945-2.7588-0.4165-5.5281-0.8972-8.243-0.5828-3.2901-1.324-8.1104-4.1948-10.255-1.6604-1.2382-3.8103-1.6454-5.7115-2.3925-0.925-0.36438-1.7539-0.72573-2.5317-1.1367-2.626 2.8788-6.0498 4.3838-10.037 4.3838-3.9858-0.0011-7.4089-1.5079-10.034-4.3868-0.77783 0.41114-1.6067 0.77149-2.532 1.1338-1.9011 0.74805-4.0518 1.1534-5.7122 2.3927-2.8718 2.1434-3.6146 6.9648-4.1982 10.253-0.4817 2.7139-0.8058 5.484-0.90065 8.2419-0.07361 2.1367 0.98145 2.4365 2.7683 3.081 2.237 0.80763 4.5473 1.4074 6.8728 1.8986 4.4916 0.94895 9.1212 1.6786 13.732 1.7116 4.6099-0.03125 9.24-0.75965 13.732-1.7069 2.326-0.49124 4.6363-1.0888 6.8741-1.8964 1.7875-0.6446 2.8425-0.9434 2.7697-3.0791z"/> <path d="m825.93 827.1c8.6404 0 11.751-8.6493 12.567-15.756 1.0048-8.7539-3.1338-15.345-12.561-15.348-9.4249-0.00184-13.568 6.586-12.566 15.343 0.81324 7.1055 3.9196 15.76 12.561 15.761z"/> <path d="m849.3 847.7c-0.09435-2.7579-0.4172-5.5283-0.8978-8.2431-0.58254-3.289-1.3238-8.1094-4.1946-10.254-1.6604-1.2392-3.8106-1.6465-5.7111-2.3936-0.92564-0.36415-1.7544-0.72545-2.5323-1.1366-2.6255 2.8778-6.0496 4.3836-10.037 4.3836-3.9857-8.3e-4 -7.409-1.5086-10.034-4.3876-0.77794 0.41115-1.6068 0.77245-2.5316 1.1348-1.9016 0.7471-4.0522 1.1532-5.7123 2.3916-2.872 2.1434-3.6148 6.9649-4.1985 10.254-0.482 2.7137-0.80576 5.4832-0.9007 8.2421-0.07376 2.1356 0.98154 2.4357 2.7682 3.0801 2.2374 0.8076 4.5476 1.4072 6.8729 1.8985 4.4918 0.94916 9.1213 1.6796 13.732 1.713 4.6101-0.03125 9.24-0.75879 13.732-1.706 2.3259-0.4922 4.6362-1.0889 6.8743-1.8975 1.7873-0.64368 2.8421-0.94251 2.7695-3.0791z"/> <path d="m765.17 679.15c8.6406 2.6e-4 11.751-8.6501 12.566-15.757 1.0046-8.755-3.1344-15.345-12.561-15.347-9.4248-0.00295-13.568 6.5857-12.566 15.342 0.8137 7.1064 3.9195 15.761 12.561 15.762z"/> <path d="m788.54 699.76c-0.09424-2.7587-0.417-5.5282-0.8977-8.2431-0.5824-3.29-1.3236-8.1103-4.1943-10.255-1.6603-1.2384-3.8107-1.6456-5.7112-2.3927-0.9257-0.36413-1.7545-0.72546-2.5322-1.1366-2.6258 2.8787-6.05 4.3834-10.037 4.3834-3.9859-8.3e-4 -7.409-1.5077-10.034-4.3866-0.7778 0.41114-1.6067 0.77147-2.5317 1.1338-1.9015 0.7481-4.052 1.1532-5.7122 2.3925-2.8721 2.1437-3.6147 6.9649-4.1986 10.253-0.48167 2.7138-0.8054 5.4844-0.90037 8.2423-0.07373 2.1367 0.98107 2.4365 2.7681 3.081 2.2374 0.8076 4.5475 1.4071 6.873 1.8983 4.4917 0.94937 9.1214 1.6787 13.731 1.7121 4.6101-0.03126 9.2401-0.75966 13.732-1.7068 2.3256-0.49123 4.6362-1.089 6.8742-1.8966 1.7872-0.64444 2.8424-0.94327 2.7693-3.0791z"/> <path d="m480.04 746.36c8.6404 0 11.751-8.6503 12.566-15.757 1.0044-8.7538-3.1345-15.345-12.561-15.347-9.4248-0.00206-13.568 6.586-12.566 15.343 0.81354 7.1053 3.9197 15.76 12.561 15.761z"/> <path d="m503.42 766.97c-0.09418-2.7579-0.41692-5.5283-0.89764-8.2431-0.58258-3.289-1.3237-8.1095-4.1946-10.254-1.6604-1.2392-3.8106-1.6465-5.7112-2.3936-0.92548-0.36415-1.7543-0.72545-2.5322-1.1366-2.6258 2.8797-6.0499 4.3847-10.037 4.3847-3.9856-0.0011-7.4089-1.5089-10.034-4.3878-0.77777 0.41114-1.6066 0.77247-2.5317 1.1346-1.9014 0.74719-4.052 1.1534-5.7122 2.3916-2.8721 2.1437-3.6147 6.9658-4.1985 10.254-0.48169 2.7139-0.80542 5.4834-0.90045 8.242-0.07374 2.1358 0.9812 2.4355 2.768 3.0802 2.2376 0.8076 4.5477 1.4071 6.8731 1.8983 4.4916 0.94934 9.1213 1.6798 13.731 1.7129 4.6101-0.03126 9.24-0.75965 13.732-1.7069 2.3259-0.49123 4.6362-1.0888 6.8742-1.8974 1.7874-0.64368 2.8424-0.9425 2.7694-3.0791z"/> <path d="m271.44 1502.3c8.6404 0 11.751-8.6501 12.566-15.756 1.0046-8.7539-3.1343-15.345-12.561-15.347-9.4248-2e-3 -13.568 6.5859-12.566 15.343 0.81348 7.1052 3.9197 15.76 12.561 15.76z"/> <path d="m294.81 1522.9c-0.09425-2.7588-0.41678-5.5293-0.89753-8.2441-0.58276-3.2891-1.3237-8.1094-4.1948-10.254-1.6602-1.2393-3.8103-1.6458-5.7112-2.3936-0.92529-0.3643-1.7541-0.7256-2.5319-1.1367-2.6258 2.8799-6.0498 4.3845-10.037 4.3845-3.9858-7e-4 -7.4089-1.5085-10.034-4.3874-0.77784 0.4111-1.6068 0.7724-2.5321 1.1347-1.9011 0.7469-4.0518 1.153-5.7122 2.3914-2.8718 2.1435-3.6148 6.9658-4.1982 10.254-0.48169 2.7136-0.80566 5.4834-0.90063 8.2422-0.07346 2.1357 0.98147 2.4355 2.7683 3.0798 2.2376 0.8072 4.5476 1.407 6.873 1.8982 4.4918 0.9507 9.1214 1.6802 13.732 1.7134 4.61-0.0313 9.24-0.76 13.732-1.707 2.3256-0.4913 4.6359-1.0889 6.874-1.8963 1.7874-0.6445 2.8426-0.9433 2.7696-3.0791z"/> <path d="m312.53 1367.4c8.6403 0 11.751-8.6504 12.566-15.757 1.0046-8.7549-3.1343-15.345-12.561-15.347-9.4248-0.0029-13.568 6.5859-12.566 15.342 0.81348 7.1063 3.9197 15.761 12.561 15.762z"/> <path d="m335.9 1388c-0.09424-2.7587-0.41675-5.5283-0.89746-8.2431-0.58274-3.2891-1.3239-8.1103-4.1948-10.255-1.6603-1.2385-3.8102-1.6457-5.7111-2.3926-0.9253-0.3642-1.7542-0.7256-2.532-1.1367-2.626 2.8789-6.0499 4.3848-10.037 4.3848-3.9858-0.0022-7.4089-1.5088-10.034-4.3877-0.77783 0.411-1.6067 0.7724-2.532 1.1338-1.9011 0.748-4.0518 1.1543-5.7122 2.3926-2.8721 2.1435-3.6148 6.9647-4.1985 10.253-0.48168 2.7138-0.80544 5.4843-0.9004 8.2431-0.0735 2.1358 0.9814 2.4356 2.7683 3.0801 2.2376 0.8076 4.5477 1.407 6.8731 1.8984 4.4916 0.9493 9.1213 1.6788 13.731 1.712 4.6101-0.0315 9.2399-0.7598 13.732-1.7071 2.3257-0.4912 4.636-1.0888 6.874-1.8965 1.7873-0.6445 2.8422-0.9433 2.7695-3.0791z"/> <path d="m-126.18 1184.2c8.6404 0 11.751-8.6504 12.566-15.757 1.0046-8.7547-3.1343-15.344-12.561-15.346-9.4248-0.0029-13.568 6.5862-12.566 15.342 0.81348 7.1064 3.9197 15.76 12.561 15.761z"/> <path d="m-102.81 1204.8c-0.094-2.7588-0.41675-5.5286-0.89748-8.2432-0.58276-3.2893-1.3237-8.1103-4.1948-10.255-1.6601-1.2381-3.8103-1.6453-5.7112-2.3924-0.92529-0.3642-1.7542-0.7255-2.532-1.1364-2.6257 2.8786-6.0498 4.3835-10.037 4.3835-3.9858-7e-4 -7.409-1.5078-10.034-4.3865-0.77784 0.4114-1.6066 0.7715-2.532 1.1338-1.9011 0.7478-4.0518 1.1534-5.7122 2.3926-2.8718 2.1436-3.6145 6.9646-4.1982 10.253-0.48166 2.7138-0.80545 5.4844-0.90044 8.2431-0.07373 2.1358 0.98122 2.4356 2.7681 3.0801 2.2376 0.8075 4.5476 1.4073 6.873 1.8985 4.4917 0.9492 9.1213 1.6787 13.731 1.7111 4.6101-0.031 9.24-0.7595 13.732-1.7069 2.3257-0.4913 4.636-1.0887 6.874-1.8963 1.7874-0.6448 2.8425-0.9434 2.7695-3.0791z"/> <path d="m73.822 1452.7c8.6404 0 11.751-8.6501 12.566-15.756 1.0044-8.7549-3.1345-15.345-12.561-15.347-9.4248-0.0019-13.568 6.586-12.566 15.343 0.81346 7.105 3.9196 15.759 12.561 15.76z"/> <path d="m97.192 1473.3c-0.09424-2.7578-0.41699-5.5283-0.89772-8.2432-0.58251-3.289-1.3237-8.1103-4.1946-10.254-1.6604-1.2392-3.8105-1.6465-5.7112-2.3935-0.92553-0.3643-1.7544-0.7256-2.5322-1.1368-2.6257 2.879-6.0498 4.3846-10.037 4.3846-3.9856-8e-4 -7.4089-1.5086-10.034-4.3875-0.77784 0.4112-1.6067 0.7725-2.5317 1.1348-1.9014 0.7471-4.052 1.1529-5.7122 2.3915-2.8721 2.1435-3.6147 6.9648-4.1985 10.253-0.48168 2.7135-0.80542 5.4833-0.90038 8.2421-0.073732 2.1357 0.9812 2.4355 2.7681 3.0808 2.2375 0.8078 4.5476 1.4075 6.873 1.8989 4.4917 0.9492 9.1213 1.6797 13.731 1.7129 4.6101-0.0313 9.24-0.7598 13.732-1.707 2.3259-0.4922 4.6362-1.0889 6.8742-1.8978 1.7873-0.6433 2.8423-0.9421 2.7693-3.0788z"/> <path d="m136.27 1352.6c8.6404 0 11.751-8.6497 12.566-15.757 1.0044-8.7537-3.1343-15.345-12.561-15.347-9.4245-0.0017-13.568 6.587-12.566 15.344 0.81348 7.1054 3.9197 15.76 12.561 15.76z"/> <path d="m159.64 1373.2c-0.09424-2.7587-0.41699-5.5285-0.89743-8.2431-0.58279-3.2901-1.324-8.1104-4.1948-10.255-1.6604-1.2381-3.8106-1.6453-5.7112-2.3934-0.92555-0.3642-1.7544-0.7255-2.5322-1.1367-2.6257 2.8799-6.0495 4.3848-10.037 4.3848-3.9858-1e-3 -7.4091-1.5076-10.034-4.3872-0.77782 0.4111-1.6067 0.7724-2.5317 1.1347-1.9014 0.7471-4.052 1.1534-5.7122 2.3926-2.872 2.1426-3.6147 6.9646-4.1985 10.253-0.48169 2.7138-0.80544 5.4834-0.90039 8.2421-0.07375 2.1365 0.98141 2.4352 2.768 3.0799 2.2376 0.8076 4.5476 1.4072 6.8733 1.8994 4.4917 0.9492 9.1213 1.6782 13.731 1.7112 4.6101-0.031 9.24-0.7596 13.732-1.7068 2.3259-0.4912 4.6362-1.0889 6.8743-1.8965 1.7873-0.6448 2.8422-0.9434 2.7695-3.0789z"/> <path d="m156.52 1196.9c8.6404 0 11.751-8.6504 12.566-15.757 1.0044-8.7549-3.1343-15.345-12.561-15.347-9.4248-0.0019-13.568 6.5857-12.566 15.343 0.81345 7.1051 3.9197 15.76 12.561 15.761z"/> <path d="m179.89 1217.5c-0.09421-2.7585-0.41699-5.5281-0.89743-8.2429-0.58276-3.2891-1.324-8.1102-4.1948-10.254-1.6604-1.2392-3.8103-1.6465-5.7111-2.3938-0.92532-0.364-1.7542-0.7253-2.5322-1.1365-2.6258 2.8789-6.0496 4.3848-10.037 4.3848-3.9858-1e-3 -7.4089-1.5088-10.034-4.3877-0.7778 0.4111-1.6067 0.7725-2.532 1.1348-1.9014 0.747-4.0517 1.1533-5.7121 2.3916-2.872 2.1435-3.6148 6.9647-4.1985 10.254-0.48169 2.7138-0.80542 5.4831-0.90039 8.242-0.07349 2.1356 0.98145 2.4357 2.7681 3.0802 2.2375 0.8076 4.5478 1.4069 6.8733 1.8983 4.4916 0.949 9.1213 1.6785 13.731 1.7129 4.6101-0.0312 9.24-0.7607 13.732-1.708 2.3257-0.4912 4.636-1.0887 6.874-1.8963 1.7873-0.6446 2.8423-0.9424 2.7695-3.0794z"/> <path d="m171.96 1076.6c8.6404 0 11.751-8.6502 12.566-15.757 1.0044-8.7539-3.1343-15.345-12.561-15.347-9.4245-0.0022-13.568 6.5859-12.566 15.343 0.81343 7.1054 3.9196 15.76 12.561 15.76z"/> <path d="m195.33 1097.2c-0.09427-2.7588-0.41703-5.5293-0.89752-8.2442-0.58277-3.289-1.324-8.1094-4.1948-10.254-1.6604-1.239-3.8103-1.6453-5.7112-2.3933-0.92526-0.3643-1.7541-0.7256-2.5322-1.1367-2.6257 2.8798-6.0495 4.3847-10.037 4.3847-3.9858-1e-3 -7.4089-1.5088-10.034-4.3877-0.77807 0.4112-1.6069 0.7725-2.532 1.1348-1.9013 0.7471-4.0517 1.1533-5.7121 2.3913-2.8721 2.1438-3.6147 6.9659-4.1985 10.254-0.48166 2.7139-0.80536 5.4834-0.90033 8.2419-0.07373 2.136 0.98144 2.4358 2.768 3.0804 2.2376 0.8076 4.5479 1.4072 6.8733 1.8981 4.4917 0.9505 9.1213 1.68 13.731 1.713 4.6101-0.031 9.24-0.7596 13.732-1.7068 2.3257-0.4915 4.636-1.0889 6.874-1.8965 1.7874-0.6448 2.8423-0.9434 2.7695-3.0791z"/> <path d="m150.88 925.67c8.6404 0 11.751-8.6504 12.566-15.757 1.0046-8.754-3.1343-15.345-12.561-15.347-9.4247-0.00193-13.568 6.586-12.566 15.343 0.81346 7.1052 3.9196 15.76 12.561 15.761z"/> <path d="m174.25 946.28c-0.09427-2.7588-0.41699-5.5293-0.89773-8.244-0.58252-3.289-1.3237-8.1094-4.1948-10.254-1.6602-1.2392-3.8103-1.6456-5.7112-2.3936-0.92527-0.36416-1.7542-0.7255-2.532-1.1366-2.6257 2.8799-6.0498 4.3846-10.037 4.3846-3.9858-9.6e-4 -7.4089-1.5086-10.034-4.3876-0.77783 0.41116-1.6067 0.77246-2.5317 1.1348-1.9014 0.7471-4.052 1.1532-5.7124 2.3915-2.8718 2.1438-3.6145 6.9659-4.1982 10.254-0.48169 2.7139-0.80542 5.4833-0.90039 8.2421-0.0737 2.1361 0.98123 2.4359 2.7681 3.0804 2.2376 0.8073 4.5476 1.4069 6.873 1.8981 4.4917 0.95034 9.1213 1.6798 13.731 1.713 4.6101-0.03137 9.24-0.75976 13.732-1.707 2.3257-0.4912 4.6362-1.0889 6.8743-1.8965 1.7871-0.64464 2.8423-0.94334 2.7692-3.0793z"/> <path d="m-73.317 940.56c8.6404 0 11.751-8.6505 12.566-15.758 1.0044-8.7538-3.1343-15.345-12.561-15.347-9.4246-0.0021-13.568 6.5869-12.566 15.343 0.81347 7.1054 3.9197 15.761 12.561 15.762z"/> <path d="m-49.947 961.17c-0.094248-2.7588-0.417-5.5284-0.89747-8.2431-0.58276-3.29-1.324-8.1105-4.1948-10.255-1.6604-1.2382-3.8105-1.6454-5.7112-2.3924-0.92554-0.36524-1.7544-0.7256-2.5322-1.1366-2.6257 2.8788-6.0495 4.3837-10.037 4.3837-3.9858-0.00109-7.4092-1.508-10.034-4.3876-0.77784 0.411-1.6067 0.7723-2.5317 1.1346-1.9014 0.74792-4.052 1.1533-5.7122 2.3926-2.872 2.1426-3.6148 6.965-4.1985 10.253-0.48172 2.7137-0.80545 5.4842-0.90042 8.2419-0.07373 2.1369 0.98146 2.4366 2.7681 3.0802 2.2375 0.80857 4.5476 1.4082 6.8733 1.8994 4.4917 0.94922 9.1213 1.6787 13.731 1.7118 4.6101-0.03124 9.24-0.75964 13.732-1.7069 2.3259-0.49124 4.6362-1.0888 6.8743-1.8965 1.7873-0.64464 2.8423-0.94348 2.7695-3.0791z"/> <path d="m-11.454 763.09c8.6404 0 11.751-8.6504 12.566-15.757 1.0044-8.755-3.1343-15.345-12.561-15.347-9.4246-0.0029-13.568 6.586-12.566 15.342 0.81348 7.1055 3.9197 15.761 12.561 15.762z"/> <path d="m11.916 783.69c-0.094238-2.7588-0.41699-5.5284-0.89746-8.2432-0.58276-3.29-1.324-8.1103-4.1948-10.255-1.6604-1.2382-3.8105-1.6455-5.7112-2.3926-0.92554-0.36415-1.7544-0.72545-2.5322-1.1366-2.6257 2.8788-6.0496 4.3836-10.037 4.3836-3.9858-1e-3 -7.4089-1.5077-10.034-4.3874-0.77783 0.41205-1.6067 0.77245-2.5317 1.1348-1.9014 0.74806-4.052 1.1532-5.7122 2.3924-2.8721 2.1436-3.6147 6.965-4.1985 10.253-0.48169 2.7138-0.80541 5.4845-0.90038 8.2422-0.07373 2.1368 0.98144 2.4365 2.7681 3.0812 2.2375 0.80762 4.5479 1.4071 6.8733 1.8983 4.4917 0.94934 9.1213 1.6787 13.731 1.712 4.6099-0.0313 9.2397-0.7598 13.732-1.707 2.3259-0.49121 4.6362-1.0889 6.8743-1.8965 1.7874-0.64455 2.8423-0.9434 2.7695-3.0791z"/> <path d="m112.23 766.43c8.6404 0 11.751-8.6503 12.566-15.757 1.0044-8.755-3.1343-15.345-12.561-15.348-9.4246-0.00184-13.568 6.5869-12.566 15.343 0.81349 7.1054 3.9197 15.761 12.561 15.762z"/> <path d="m135.6 787.04c-0.09427-2.7588-0.41699-5.5283-0.89774-8.2432-0.58249-3.29-1.3237-8.1102-4.1946-10.255-1.6604-1.2386-3.8105-1.6458-5.7112-2.3928-0.92554-0.36525-1.7544-0.72545-2.5322-1.1366-2.6257 2.8789-6.0495 4.3838-10.037 4.3838-3.9856-9.5e-4 -7.409-1.5078-10.034-4.3877-0.77782 0.41115-1.6067 0.77245-2.5317 1.1348-1.9014 0.74806-4.052 1.1532-5.7122 2.3926-2.8721 2.1437-3.6147 6.9648-4.1985 10.253-0.4817 2.7139-0.80542 5.4845-0.9004 8.2422-0.073734 2.1368 0.98146 2.4366 2.7681 3.08 2.2375 0.80873 4.5476 1.4082 6.8733 1.8994 4.4917 0.9493 9.1211 1.6787 13.731 1.712 4.6101-0.03123 9.24-0.7599 13.732-1.707 2.3259-0.4912 4.6362-1.0889 6.8742-1.8965 1.7874-0.6445 2.8423-0.94336 2.7696-3.0791z"/> <path d="m350.08 669.83c8.6404 0 11.751-8.6504 12.566-15.757 1.0047-8.7537-3.1342-15.344-12.561-15.346-9.4248-0.00185-13.568 6.5859-12.566 15.343 0.81348 7.1056 3.9197 15.76 12.561 15.761z"/> <path d="m373.45 690.43c-0.0942-2.7578-0.41702-5.5283-0.89773-8.2432-0.58245-3.289-1.3237-8.1094-4.1948-10.254-1.6602-1.2392-3.8104-1.6455-5.711-2.3935-0.9256-0.3644-1.7544-0.7257-2.5322-1.1369-2.6258 2.8799-6.0498 4.3848-10.037 4.3848-3.9858-8.5e-4 -7.4089-1.5088-10.034-4.3877-0.77782 0.41114-1.6068 0.7725-2.5318 1.1348-1.9014 0.74704-4.0519 1.1533-5.7124 2.3916-2.8719 2.1434-3.6145 6.9658-4.1982 10.254-0.48175 2.7139-0.80542 5.4834-0.90042 8.2422-0.07373 2.1356 0.9812 2.4354 2.7681 3.08 2.2375 0.80764 4.5476 1.4075 6.8731 1.8987 4.4917 0.94909 9.1213 1.6796 13.731 1.7129 4.61-0.03124 9.24-0.75989 13.732-1.7071 2.3256-0.4912 4.6362-1.0889 6.8743-1.8965 1.7871-0.6444 2.8423-0.94324 2.7693-3.08z"/> </g> </svg>